<svg xmlns="http://www.w3.org/2000/svg" viewBox="0 0 59 88.9" aria-hidden="true">
  <!-- Mark -->
  <g fill="#00a76d">
    <polygon points="28.9 12.2 26.1 13.9 26.1 20.3 28.9 22 31.7 23.6 34.6 22 37.4 20.3 37.4 13.9 31.7 10.6 28.9 12.2"/>
    <polygon points="19.9 3.2 19.9 9.7 25.5 12.9 28.4 11.3 31.2 9.7 31.2 3.2 25.5 0 19.9 3.2"/>
    <polygon points="25.5 21.3 19.9 24.5 19.9 31 25.5 34.2 28.4 32.6 31.2 31 31.2 24.5 28.4 22.9 25.5 21.3"/>
    <polygon points="35.1 22.9 32.3 24.5 32.3 31 35.1 32.6 37.9 34.2 40.8 32.6 43.6 31 43.6 24.5 40.8 22.9 37.9 21.3 35.1 22.9"/>
    <polygon points="44.1 23.6 49.8 20.3 49.8 13.9 44.1 10.6 38.5 13.9 38.5 20.3 41.3 22 44.1 23.6"/>
    <polygon points="43.6 52.2 43.6 45.8 40.8 44.1 37.9 42.5 35.1 44.1 32.3 45.8 32.3 52.2 37.9 55.5 43.6 52.2"/>
    <polygon points="7.5 24.5 7.5 31 13.1 34.2 18.8 31 18.8 24.5 13.1 21.3 7.5 24.5"/>
    <polygon points="49.8 41.6 49.8 35.1 44.1 31.9 41.3 33.5 38.5 35.1 38.5 41.6 41.3 43.2 44.1 44.8 49.8 41.6"/>
    <polygon points="34.6 43.2 37.4 41.6 37.4 35.1 34.6 33.5 31.7 31.9 28.9 33.5 26.1 35.1 26.1 41.6 28.9 43.2 31.7 44.8 34.6 43.2"/>
    <polygon points="31.2 52.2 31.2 45.8 28.4 44.1 25.5 42.5 19.9 45.8 19.9 52.2 25.5 55.5 31.2 52.2"/>
  </g>
  <!-- Wordmark -->
  <g fill="#231f20">
    <path d="M13.3 74.7h-2.3l-.8-6.8-2.7 5.6h-1.7l-2.7-5.6-.8 6.8H0l1.4-11h1.9l3.4 7.2 3.4-7.2h1.9l1.3 11z"/>
    <path d="M20.8 67.2h2.1v7.5h-2.1v-1.1c-.5.8-1.5 1.3-2.5 1.3-2.1 0-3.6-1.6-3.6-3.9s1.5-3.9 3.6-3.9 1.9.4 2.4 1.2v-1zm-.1 3.8c0-1.1-.9-2-2-2s-1.9.9-1.9 2 .8 2 1.9 2 1.9-.9 1.9-2z"/>
    <path d="M32.2 70.6v4.1h-2.1v-4c0-1.2-.7-1.7-1.4-1.7s-1.7.4-1.7 1.8v3.9h-2.1v-7.5h2.1v1.2c.4-1 1.5-1.4 2.2-1.4 2 0 3 1.3 3 3.6z"/>
    <path d="M39.2 67.2h2.1v7.5h-2.1v-1.2c-.3 1-1.5 1.4-2.2 1.4-2 0-3-1.3-3-3.6v-4.1h2.1v4c0 1.2.7 1.7 1.4 1.7s1.7-.4 1.7-1.8v-4z"/>
    <path d="M50.7 74.7h-2.6l-2.6-3.2v3.2h-2.1v-11.5h2.1v6.4l1.9-2.3h2.7l-2.9 3.3 3.6 4.2z"/>
    <path d="M56.9 67.2h2.1v7.5h-2.1v-1.1c-.5.8-1.5 1.3-2.5 1.3-2.1 0-3.6-1.6-3.6-3.9s1.5-3.9 3.6-3.9 1.9.4 2.4 1.2v-1zm-.1 3.8c0-1.1-.9-2-2-2s-1.9.9-1.9 2 .8 2 1.9 2 1.9-.9 1.9-2z"/>
    <path d="M17.6 86.9h4.2v2h-6.4v-11h2.2v9.1z"/>
    <path d="M22.8 78.8c0-.7.6-1.2 1.3-1.2s1.3.5 1.3 1.2-.6 1.3-1.3 1.3-1.3-.6-1.3-1.3zm.3 10.1v-7.5h2.1v7.5h-2.1z"/>
    <path d="M34.5 84.8v4.1h-2.1v-4c0-1.2-.7-1.7-1.4-1.7s-1.7.4-1.7 1.8v3.9h-2.1v-7.5h2.1v1.2c.4-1 1.5-1.4 2.2-1.4 2 0 3 1.3 3 3.6z"/>
    <path d="M42.1 77.3h2.1v11.5h-2.1v-.9c-.5.8-1.6 1.1-2.4 1.1-1.9 0-3.7-1.5-3.7-3.9s1.7-3.9 3.7-3.9 1.9.3 2.4 1.1v-5zm-.1 7.8c0-1.2-1-2-1.9-2s-1.9.9-1.9 2 .9 2 1.9 2 1.9-.8 1.9-2z"/>
  </g>
</svg>
